<svg width="504" height="375" viewBox="0 0 504 375" fill="none" xmlns="http://www.w3.org/2000/svg">
<path fill-rule="evenodd" clip-rule="evenodd" d="M351.824 39.4505C341.343 37.3557 330.163 35.6101 318.983 34.2136C183.075 19.8994 40.8773 83.7895 2.09631 177.355C1.39755 179.101 0.698773 181.196 1.52588e-05 182.941C32.1429 114.513 125.078 64.2384 225.349 56.9068C227.096 51.6699 230.241 47.4804 234.433 43.9891C237.578 41.5452 241.421 39.4505 245.264 38.4031C249.107 37.3557 253.3 36.6575 257.492 37.0066C267.974 38.054 277.756 44.3383 281.599 57.2559C283.346 57.2559 284.744 57.2559 286.491 57.605C303.959 59.3507 320.031 62.4928 335.054 67.0315C338.199 62.1437 341.343 57.605 344.487 52.3682C347.282 48.1786 349.728 43.9891 352.174 39.4505M177.135 372.517C313.043 386.831 455.241 322.941 494.022 229.375C526.514 151.52 477.251 77.5052 381.172 46.7821C375.233 56.9068 368.595 67.3806 362.655 76.4579C436.723 107.879 472.36 169.675 445.109 234.961C409.472 320.148 280.551 378.103 156.871 365.185C131.366 362.392 107.609 356.806 86.9954 349.125C112.849 360.647 143.245 369.026 177.135 372.517Z" fill="currentColor" fill-opacity="0.2"/>
<path fill-rule="evenodd" clip-rule="evenodd" d="M175.737 78.5534C166.654 86.5833 154.775 107.182 153.028 123.94C147.438 178.403 209.977 202.493 276.009 161.995C305.357 144.189 326.669 121.845 346.234 95.6606C356.716 81.6955 391.304 29.6757 396.195 9.4264L375.931 0C372.088 3.84039 360.559 28.6283 356.366 35.96C349.728 47.8303 342.74 59.0023 335.403 69.4761C309.549 107.531 256.444 163.74 205.085 157.805C189.713 156.059 176.786 146.982 176.436 130.922C176.087 109.276 190.761 101.596 192.857 90.7728C187.616 87.6307 180.279 79.6008 175.737 77.8551M227.795 74.0147C237.228 104.738 288.587 93.2167 278.455 57.9549C269.022 25.1371 217.314 39.4513 227.795 74.0147ZM151.63 346.682C161.064 343.889 186.918 325.386 194.953 319.101C231.289 291.869 238.276 282.792 267.624 250.673C272.865 244.737 278.455 238.104 283.695 231.82C289.286 225.186 295.225 219.949 301.164 214.363C311.646 203.541 329.115 187.481 349.379 202.493C387.81 230.423 313.043 300.598 290.334 329.226C295.574 335.51 301.514 340.747 307.803 344.937C325.621 329.575 366.498 274.413 377.678 253.116C401.436 207.73 360.559 159.9 314.091 175.96C287.539 185.386 251.203 234.962 231.289 255.211C207.88 278.952 192.857 292.568 164.557 311.421C156.871 316.657 147.088 321.196 140.45 327.48L151.63 346.682Z" fill="currentColor" fill-opacity="0.2"/>
</svg>
