<svg width="256" height="347" viewBox="0 0 256 347" fill="none" xmlns="http://www.w3.org/2000/svg">
<path fill-rule="evenodd" clip-rule="evenodd" d="M35.2873 78.5534C26.2034 86.5833 14.3245 107.182 12.5777 123.94C6.9876 178.403 69.5263 202.493 135.559 161.995C164.907 144.189 186.219 121.845 205.784 95.6606C216.265 81.6955 250.854 29.6757 255.745 9.4264L235.481 0C231.638 3.84039 220.109 28.6283 215.916 35.96C209.278 47.8303 202.29 59.0023 194.953 69.4761C169.099 107.531 115.994 163.74 64.6351 157.805C49.2624 156.059 36.3353 146.982 35.986 130.922C35.6366 109.276 50.3105 101.596 52.4068 90.7728C47.1661 87.6307 39.8292 79.6008 35.2873 77.8551M87.3447 74.0147C96.7779 104.738 148.137 93.2167 138.005 57.9549C128.571 25.1371 76.8633 39.4513 87.3447 74.0147ZM11.1802 346.682C20.6134 343.889 46.4674 325.386 54.5031 319.101C90.8385 291.869 97.826 282.792 127.174 250.673C132.415 244.737 138.005 238.104 143.245 231.82C148.835 225.186 154.775 219.949 160.714 214.363C171.196 203.541 188.664 187.481 208.928 202.493C247.36 230.423 172.593 300.598 149.883 329.226C155.124 335.51 161.064 340.747 167.352 344.937C185.171 329.575 226.048 274.413 237.228 253.116C260.986 207.73 220.109 159.9 173.641 175.96C147.088 185.386 110.753 234.962 90.8385 255.211C67.4301 278.952 52.4068 292.568 24.1071 311.421C16.4208 316.657 6.6382 321.196 0 327.48L11.1802 346.682Z" fill="currentColor" fill-opacity="0.2"/>
</svg>
