<svg width="306" height="69" viewBox="0 0 306 69" fill="none" xmlns="http://www.w3.org/2000/svg">
<g clip-path="url(#clip0_1_360)">
<path fill-rule="evenodd" clip-rule="evenodd" d="M277.977 7.20895C276.049 6.82275 273.992 6.50093 271.936 6.24346C246.934 3.60447 220.775 15.3834 213.641 32.6334C213.512 32.9552 213.384 33.3414 213.255 33.6632C219.168 21.0476 236.265 11.7789 254.711 10.4272C255.032 9.46175 255.611 8.68936 256.382 8.0457C256.96 7.59514 257.667 7.20895 258.374 7.01585C259.081 6.82275 259.853 6.69402 260.624 6.75839C262.552 6.95149 264.352 8.11007 265.059 10.4916C265.38 10.4916 265.637 10.4916 265.958 10.556C269.172 10.8778 272.129 11.4571 274.892 12.2938C275.471 11.3927 276.049 10.556 276.628 9.59048C277.142 8.81809 277.592 8.0457 278.042 7.20895M245.841 68.6138C270.843 71.2528 297.002 59.4739 304.136 42.2239C310.113 27.8703 301.051 14.2248 283.376 8.56063C282.284 10.4272 281.062 12.3582 279.97 14.0317C293.595 19.8246 300.151 31.2173 295.138 43.2537C288.582 58.9589 264.866 69.6436 242.113 67.2621C237.422 66.7472 233.051 65.7173 229.259 64.3013C234.015 66.4254 239.607 67.9701 245.841 68.6138Z" fill="white"/>
<path d="M161.773 51.5567C161.773 51.6854 161.773 51.7498 161.773 51.8785C161.773 51.9429 161.773 52.0073 161.773 52.0073L161.902 52.2647C161.902 52.2647 161.966 52.3935 162.03 52.5222L162.352 52.7797L163.444 52.5222C163.894 52.3935 164.215 52.2647 164.408 52.0716C164.601 51.8785 164.73 51.7498 164.794 51.6211V51.2992C164.987 51.0418 164.858 50.9131 164.601 50.7843C164.408 50.6556 164.215 50.5912 164.023 50.5912H163.123C162.416 50.5912 162.03 50.7843 161.902 51.2349L161.773 51.6211V51.5567ZM158.495 57.3496C158.367 57.7358 158.688 57.9289 159.459 57.9933C159.588 57.9933 159.652 57.9933 159.781 57.9933H162.416C162.416 57.9933 162.609 57.9933 162.866 57.9289L160.295 55.7405L159.845 55.8692H159.524C159.074 56.0623 158.817 56.2554 158.688 56.5772L158.495 57.2209V57.3496ZM154.253 56.5772C154.253 56.5129 154.318 56.3841 154.446 56.2554C154.96 55.3543 155.989 54.5819 157.531 54.067L158.045 53.8739L157.403 52.9728C157.21 52.5866 157.146 52.2004 157.274 51.8142L157.595 50.6556C157.853 49.8188 158.431 49.1752 159.395 48.7246C160.359 48.2741 161.516 48.0166 162.93 48.0166H165.758C167.558 48.0166 168.65 48.4028 169.164 49.1752C169.486 49.5614 169.55 50.0119 169.422 50.3981L169.036 51.6854C168.907 52.0073 168.779 52.2647 168.65 52.4578C168.522 52.6509 168.2 52.9084 167.686 53.2302C166.915 53.7451 166.208 54.1313 165.501 54.3244L164.601 54.5175L166.272 55.9336C166.272 55.8692 166.272 55.8048 166.272 55.8048L166.658 54.6463H171.221L170.643 56.5129C170.514 56.9634 170.129 57.4784 169.614 57.9933C169.614 57.9933 169.422 58.122 169.1 58.3795L171.735 60.6323H165.887L165.372 60.1817C164.408 60.5035 163.316 60.6323 162.03 60.6323H158.045C155.86 60.6323 154.51 60.1173 153.996 59.0875C153.803 58.7013 153.739 58.3151 153.868 57.9289L154.253 56.5772Z" fill="white"/>
<path fill-rule="evenodd" clip-rule="evenodd" d="M11.2476 48.4025H18.5747C20.31 48.4025 21.3384 48.0163 21.5312 47.244L22.1739 45.1842C22.1739 44.5406 21.724 44.2188 20.5671 44.09H12.5974L11.3119 48.4025H11.2476ZM40.4915 45.5061L37.7921 54.5816C37.4707 55.5471 38.1777 56.062 39.7845 56.062H44.4121C46.0832 56.062 46.983 55.6115 47.2401 54.7747L50.0681 45.5704C50.3894 44.605 49.6824 44.09 48.0756 44.09H43.448C41.7769 44.09 40.8129 44.605 40.4915 45.5704V45.5061ZM33.4215 44.09C33.5501 43.7682 33.6786 43.382 33.9357 42.9958C35.414 40.743 38.3705 39.5844 42.6767 39.5844H51.5463C56.7524 39.5844 58.8733 41.0648 57.9735 44.09L54.31 56.062C53.4102 59.0872 50.3251 60.632 45.0548 60.632H36.2495C33.8715 60.632 32.1361 60.3745 31.172 59.8596C30.1437 59.3447 29.6938 58.4436 29.6295 57.2206C29.6295 56.8344 29.6295 56.5126 29.758 56.1908L33.3573 44.1544L33.4215 44.09ZM62.1512 39.5844H69.414V54.1954L75.4556 42.6096C75.9697 41.5798 76.8696 40.8074 78.0907 40.1637C79.3119 39.5201 80.6616 39.1982 82.1399 39.1982C83.6181 39.1982 83.6181 39.327 84.3251 39.5201C86.2533 39.9706 87.1531 41.0005 87.0246 42.6096L85.9962 54.1954L94.8658 39.5844H102.129L90.9452 57.9287C90.0454 59.4091 88.3743 60.3745 85.9962 60.7607C85.3535 60.8895 84.7108 60.9538 84.1323 60.9538C82.6541 60.9538 81.4329 60.6964 80.5331 60.1171C79.6333 59.5378 79.1834 58.8298 79.2476 57.9287L80.1474 45.4417L73.9773 57.9287C73.5274 58.7654 72.6919 59.5378 71.4064 60.1171C70.121 60.6964 68.707 61.0182 67.2287 61.0182C65.7505 61.0182 64.9149 60.8251 64.0151 60.3746C62.7939 59.8596 62.2155 59.0229 62.2155 57.993V39.6488L62.1512 39.5844ZM99.879 56.1908L103.543 44.09C103.607 43.8326 103.8 43.5107 103.992 43.1245C105.342 40.6787 108.106 39.5201 112.219 39.5201H127.709L126.359 44.0257H112.862C112.733 44.0257 112.605 44.09 112.348 44.1544C111.448 44.3475 110.934 44.7337 110.741 45.3773L110.034 47.6945H125.267L123.853 52.2645H108.62L107.913 54.5816C107.656 55.4184 108.17 55.9333 109.391 55.9977H122.696L121.282 60.5676H106.885C101.357 60.5676 98.9792 59.0872 99.879 56.1908ZM131.887 39.5844H149.433C154.253 39.5844 156.181 41.0005 155.346 43.8326L154.06 48.0163C153.675 49.368 152.582 50.4622 150.975 51.2346C149.819 51.7495 148.533 52.1357 147.119 52.2001C146.541 52.2001 146.091 52.2001 145.769 52.2001H144.612L150.59 60.5033H141.72L136.193 52.6507C135.871 52.2001 135.807 51.6208 136.129 51.0415C136.9 49.2393 138.699 48.3382 141.463 48.3382H144.484C145.834 48.3382 146.605 47.952 146.798 47.1796L147.376 45.2486C147.569 44.5406 147.119 44.1544 145.898 44.0257C145.834 44.0257 145.641 44.0257 145.448 44.0257H137.992L132.979 60.5676H125.459L131.887 39.5201V39.5844ZM179.834 43.8326C180.476 41.7085 182.212 40.3568 184.975 39.7775C185.811 39.6488 187.161 39.5201 189.025 39.5201H203.807L202.457 44.0257H189.796C188.318 44.0257 187.353 44.3475 186.968 45.0555C186.968 45.0555 186.904 45.1842 186.839 45.3773L186.132 47.6945H201.301L199.887 52.2645H184.718L182.212 60.5676H174.692L179.769 43.7682L179.834 43.8326ZM200.915 60.5676L207.342 39.5201H214.862L208.435 60.5676H200.915ZM216.276 44.09L217.626 39.5844H240.057L238.707 44.09H231.187L226.174 60.632H218.654L223.667 44.09H216.212H216.276ZM0 60.5676L6.42722 39.5201H23.845C26.1588 39.5201 27.8299 39.9063 28.9868 40.6787C30.0794 41.451 30.465 42.4809 30.1437 43.6395L28.5369 48.8531C28.1512 50.1404 27.1229 51.1703 25.5161 51.9426C24.1021 52.5863 22.3667 52.9081 20.3743 52.9081H9.83365L7.51985 60.5033H0V60.5676Z" fill="white"/>
<path fill-rule="evenodd" clip-rule="evenodd" d="M245.584 14.4178C243.913 15.8982 241.728 19.6958 241.406 22.7854C240.378 32.8264 251.883 37.2676 264.03 29.8012C269.429 26.5186 273.35 22.3992 276.949 17.5717C278.877 14.9971 285.24 5.40663 286.14 1.67342L282.412 -0.0644531C281.705 0.643569 279.584 5.21353 278.813 6.56521C277.592 8.75364 276.306 10.8133 274.957 12.7443C270.2 19.7602 260.431 30.123 250.983 29.0288C248.155 28.707 245.777 27.0335 245.713 24.0727C245.648 20.082 248.348 18.666 248.733 16.6706C247.769 16.0913 246.42 14.6109 245.584 14.2891M255.161 13.5811C256.896 19.2452 266.344 17.1212 264.48 10.6202C262.745 4.56988 253.233 7.20887 255.161 13.5811ZM241.149 63.8507C242.885 63.3357 247.641 59.9244 249.119 58.7658C255.803 53.7453 257.089 52.0717 262.488 46.1501C263.452 45.0559 264.48 43.8329 265.444 42.6744C266.473 41.4514 267.565 40.4859 268.658 39.4561C270.586 37.4607 273.8 34.4999 277.527 37.2676C284.597 42.4169 270.843 55.3544 266.665 60.6324C267.63 61.791 268.722 62.7564 269.879 63.5288C273.157 60.6967 280.677 50.527 282.733 46.6007C287.104 38.2331 279.584 29.415 271.036 32.3758C266.151 34.1137 259.467 43.2536 255.803 46.9869C251.497 51.3637 248.733 53.874 243.527 57.3497C242.113 58.3152 240.314 59.152 239.093 60.3105L241.149 63.8507Z" fill="white"/>
</g>
<defs>
<clipPath id="clip0_1_360">
<rect width="306" height="69" fill="white"/>
</clipPath>
</defs>
</svg>
